<?xml version="1.0" encoding="utf-8"?>
<!-- Generator: Adobe Illustrator 16.0.0, SVG Export Plug-In . SVG Version: 6.00 Build 0)  -->
<!DOCTYPE svg PUBLIC "-//W3C//DTD SVG 1.1//EN" "http://www.w3.org/Graphics/SVG/1.1/DTD/svg11.dtd">
<svg version="1.1" xmlns="http://www.w3.org/2000/svg" xmlns:xlink="http://www.w3.org/1999/xlink" x="0px" y="0px"
	 width="1301.829px" height="404.64px" viewBox="0 0 1301.829 404.64" enable-background="new 0 0 1301.829 404.64"
	 xml:space="preserve">
<g id="Layer_1">
</g>
<g id="Layer_2">
	<g>
		<defs>
			<rect id="SVGID_1_" x="-1.171" width="1303" height="405"/>
		</defs>
		<clipPath id="SVGID_2_">
			<use xlink:href="#SVGID_1_"  overflow="visible"/>
		</clipPath>
		<g transform="matrix(1 0 0 1 0 -5.960464e-08)" clip-path="url(#SVGID_2_)">
			<image overflow="visible" width="2391" height="1711" xlink:href="pattern.jpg"  transform="matrix(0.24 0 0 0.24 0 -0.5005)">
			</image>
		</g>
		<g transform="matrix(1 0 0 1 3.051758e-05 0)" clip-path="url(#SVGID_2_)">
			
				<image overflow="visible" width="2391" height="1711" xlink:href="pattern.jpg"  transform="matrix(0.24 0 0 0.24 246.5117 -2.5005)">
			</image>
		</g>
		<g transform="matrix(1 0 0 1 6.103516e-05 0)" clip-path="url(#SVGID_2_)">
			
				<image overflow="visible" width="2391" height="1711" xlink:href="pattern.jpg"  transform="matrix(0.24 0 0 0.24 493.999 -4.0005)">
			</image>
		</g>
		<g transform="matrix(1 0 0 1 0 0)" clip-path="url(#SVGID_2_)">
			
				<image overflow="visible" width="2391" height="1711" xlink:href="pattern.jpg"  transform="matrix(0.24 0 0 0.24 741.4893 -5.5005)">
			</image>
		</g>
	</g>
</g>
</svg>
